<svg id="Layer_1" data-name="Layer 1" xmlns="http://www.w3.org/2000/svg" viewBox="0 0 130 39.19"><defs><style>.cls-1,.cls-5{fill:#001c35;}.cls-2{fill:#070707;}.cls-3{fill:#f9f9f9;}.cls-4{fill:#fefefe;}.cls-5{font-size:12.5px;font-family:MicrosoftJhengHeiRegular, Microsoft JhengHei;}.cls-6{fill:#fff;}.cls-7{fill:#0071bc;}</style></defs><title>car parts l</title><path class="cls-1" d="M38.39,92.49c-.22-5.11,5-9.33,10.65-8.69.8.09,1.9,1,2.41-.19.39-.91.06-1.82-1.34-2.07-.8-.14-1.06-.85-1.15-1.53-.15-1.11-.91-1.31-2-1.23s-1.65.35-1.83,1.47c-.31,2-1.46,2.43-3.05.84-.83-.83-1.51-.65-2.42-.07s-1.26,1-.76,2.08c.81,1.7.16,2.68-2,2.06-1.38-.4-1.84.19-2.42,1.09s-.19,1.55.64,2.13c1.89,1.28,1.2,2.21-.68,2.67-1.17.29-1.46.83-1.44,1.81,0,1.17.59,1.62,1.89,1.72,2.17.16,2,1.22.83,2.4-.77.75-1.28,1.27-.51,2.39s1.63,1.06,2.82.63c1.81-.64,2.33.24,2,1.68-.25,1-.48,1.7.81,2.32s2,.19,2.85-.72c1.16-1.26,2.24-1,2.65.54.29,1.08.66,1.65,2,1.56s1.95-.49,1.95-1.68a1.23,1.23,0,0,1,.19-.82c.84-.79,3-1.19,1.75-2.67-.94-1.15-2.46.19-3.74.3C43.38,100.93,38.6,97.18,38.39,92.49Z" transform="translate(-24 -66.2)"/><path class="cls-2" d="M55,92a8,8,0,1,1-8-8A8,8,0,0,1,55,92Zm-1.36-3.49c-.11-.18-.2-.35-.31-.52a.86.86,0,0,0-.23-.3s-.16.1-.25.15a.12.12,0,0,1-.19,0,.14.14,0,0,1,0-.2.88.88,0,0,1,.15-.12c.1,0,.08-.1,0-.17s-.22-.27-.34-.4a1.13,1.13,0,0,0-.26-.23s-.13.13-.2.19v0a.15.15,0,0,1-.2-.21.86.86,0,0,1,.13-.14c.09-.07.07-.11,0-.17L51.55,86c-.08-.06-.17-.16-.26-.17s-.12.14-.17.22l0,0a.14.14,0,0,1-.23-.16,1.4,1.4,0,0,1,.1-.16c.06-.07.07-.12,0-.18s-.44-.24-.66-.36-.13,0-.18.06-.06.32-.25.24-.06-.24,0-.35,0-.14-.07-.17-.46-.15-.69-.24-.16,0-.18.11,0,.29-.21.25-.1-.22-.06-.32,0-.17-.12-.19-.46-.06-.69-.11-.18,0-.17.16,0,.29-.17.27-.14-.17-.12-.29,0-.19-.15-.18h-.52c-.3,0-.3,0-.29.31,0,.1,0,.17-.14.18a.15.15,0,0,1-.16-.14c0-.1,0-.24-.06-.28s-.21,0-.32,0l-.32.06c-.3.06-.3.06-.23.36,0,.09,0,.16-.09.19s-.15,0-.2-.1,0-.25-.12-.27a.75.75,0,0,0-.31.1l-.27.1c-.1,0-.24.06-.29.14s.07.17.1.27h0a.16.16,0,0,1-.06.19.13.13,0,0,1-.19,0,.91.91,0,0,1-.09-.17c0-.1-.09-.13-.2-.06a6.5,6.5,0,0,1-.63.37c-.1.06-.09.1,0,.19s.25.22.08.34-.24-.07-.31-.18-.1-.1-.18,0-.26.23-.39.34-.22.15-.24.24.12.14.18.22.09.15,0,.23-.14,0-.21,0-.12-.22-.24-.17-.15.15-.23.24l-.19.24c-.18.23-.18.23,0,.42l0,0a.14.14,0,0,1,0,.19A.16.16,0,0,1,41,88l-.19-.13c-.07-.05-.11-.05-.15,0s-.17.29-.25.43a.88.88,0,0,0-.15.35c0,.08.17.09.26.15s.11.09.07.17a.14.14,0,0,1-.19.09L40.21,89c-.08-.05-.13,0-.16.06s-.11.31-.16.46-.13.25-.09.36.18.06.28.1a.14.14,0,0,1,.09.17c0,.08-.08.11-.16.11l-.18,0c-.1,0-.15,0-.17.1,0,.29-.09.58-.13.86s0,.16.14.16.3,0,.29.16-.2.15-.33.13-.15,0-.14.12,0,.38,0,.56,0,.29.3.28c.1,0,.17,0,.18.14s-.06.15-.15.16H39.7c-.11,0-.15,0-.12.17s.1.46.14.7.06.14.18.1.29-.14.34.06-.15.18-.26.21-.13.06-.09.17.17.46.26.69.09.12.19.06.24-.18.33,0-.1.22-.21.27-.12.08-.06.17.18.31.28.47.11.21.19.25.16-.09.24-.14h0a.14.14,0,0,1,.19,0,.13.13,0,0,1,0,.19.7.7,0,0,1-.17.13c-.08,0-.08.1,0,.17l.38.43c.19.21.19.2.4,0l0,0a.15.15,0,0,1,.18,0,.14.14,0,0,1,0,.19,1.14,1.14,0,0,1-.15.16c-.06.06-.07.1,0,.16s.29.24.44.36.24.18.41,0,.14-.12.22-.07.08.14,0,.22a.57.57,0,0,1-.08.13c-.08.08-.06.13,0,.19l.62.35c.09,0,.16.07.21-.07s.07-.29.24-.22.07.23,0,.34,0,.14.07.18.46.15.69.24.15,0,.17-.1,0-.31.22-.26.09.22.06.33,0,.16.11.17l.55.09c.27,0,.27,0,.32-.24v0a.13.13,0,0,1,.16-.13c.08,0,.12.07.13.16s-.09.24,0,.3a.69.69,0,0,0,.32,0h.26c.11,0,.23,0,.32,0s0-.21,0-.31,0-.14.12-.15.15,0,.17.12a1.11,1.11,0,0,1,0,.19c0,.1,0,.13.14.11l.48-.08a.85.85,0,0,0,.34-.1c.08-.07,0-.19,0-.3a.16.16,0,0,1,.11-.18.14.14,0,0,1,.17.1,1.27,1.27,0,0,1,.06.18q0,.15.15.09l.49-.18c.11,0,.25-.06.31-.15s-.07-.17-.11-.27h0a.13.13,0,0,1,.06-.18.13.13,0,0,1,.19,0,.66.66,0,0,1,.09.19c0,.1.09.11.18,0l.43-.25a1,1,0,0,0,.29-.21s-.1-.17-.16-.25a.15.15,0,0,1,0-.21.15.15,0,0,1,.21,0c.06.07.12.16.19.26l.5-.43c.09-.07.21-.14.23-.23s-.13-.14-.19-.22h0a.14.14,0,0,1,0-.21.15.15,0,0,1,.21,0l.13.13c.06.07.1.08.17,0a7.87,7.87,0,0,0,.55-.71,2.27,2.27,0,0,1-.25-.18.13.13,0,0,1,0-.2.13.13,0,0,1,.2,0,1.13,1.13,0,0,1,.18.12c.07.06.1,0,.14,0l.27-.47a.71.71,0,0,0,.14-.31c0-.08-.17-.09-.25-.15h0a.13.13,0,0,1-.06-.18.15.15,0,0,1,.18-.08,1.11,1.11,0,0,1,.19.09c.09,0,.12,0,.15-.06l.18-.49c0-.11.11-.23.08-.33s-.18-.06-.27-.1h0a.14.14,0,0,1-.09-.17.12.12,0,0,1,.16-.1.58.58,0,0,1,.19,0c.1,0,.14,0,.17-.1.06-.29.09-.59.13-.89,0-.13-.06-.12-.14-.12s-.3,0-.29-.16.19-.14.32-.13.16,0,.15-.14,0-.33,0-.5,0-.24,0-.32-.19,0-.3,0a.14.14,0,0,1-.16-.13A.14.14,0,0,1,54.1,91h.15c.13,0,.19,0,.15-.18s-.07-.36-.1-.53-.07-.28-.34-.22c-.1,0-.19,0-.22-.09s0-.16.13-.19l.13,0c.1,0,.14-.07.09-.17s-.12-.34-.19-.51-.11-.27-.39-.17h0a.16.16,0,0,1-.2-.07.15.15,0,0,1,.08-.2Z" transform="translate(-24 -66.2)"/><path class="cls-3" d="M53.64,88.48l-.27.14a.15.15,0,0,0-.08.2.16.16,0,0,0,.2.07h0c.28-.1.28-.1.39.17s.12.34.19.51,0,.15-.09.17l-.13,0c-.09,0-.17.07-.13.19s.12.11.22.09c.27-.06.28-.06.34.22s.06.35.1.53,0,.18-.15.18H54.1a.14.14,0,0,0-.12.16.14.14,0,0,0,.16.13c.11,0,.24-.08.3,0s0,.21,0,.32,0,.34,0,.5,0,.16-.15.14-.31-.08-.32.13.17.14.29.16.16,0,.14.12c0,.3-.07.6-.13.89,0,.12-.07.14-.17.1a.58.58,0,0,0-.19,0,.12.12,0,0,0-.16.1.14.14,0,0,0,.09.17h0c.09,0,.25,0,.27.1s0,.22-.08.33l-.18.49c0,.09-.06.11-.15.06a1.11,1.11,0,0,0-.19-.09.15.15,0,0,0-.18.08.13.13,0,0,0,.06.18h0c.08.06.24.07.25.15a.71.71,0,0,1-.14.31l-.27.47c0,.07-.07.09-.14,0a1.13,1.13,0,0,0-.18-.12.13.13,0,0,0-.2,0,.13.13,0,0,0,0,.2,2.27,2.27,0,0,0,.25.18,7.87,7.87,0,0,1-.55.71c-.07.07-.11.06-.17,0l-.13-.13a.15.15,0,0,0-.21,0,.14.14,0,0,0,0,.21h0c.06.08.21.14.19.22s-.14.16-.23.23l-.5.43c-.07-.1-.13-.19-.19-.26a.15.15,0,0,0-.21,0,.15.15,0,0,0,0,.21c.06.08.18.22.16.25a1,1,0,0,1-.29.21l-.43.25c-.09.06-.14,0-.18,0a.66.66,0,0,0-.09-.19.13.13,0,0,0-.19,0,.13.13,0,0,0-.06.18h0c0,.1.16.21.11.27s-.2.11-.31.15l-.49.18q-.13.06-.15-.09a1.27,1.27,0,0,0-.06-.18.14.14,0,0,0-.17-.1.16.16,0,0,0-.11.18c0,.11.13.23,0,.3a.85.85,0,0,1-.34.1l-.48.08c-.1,0-.14,0-.14-.11a1.11,1.11,0,0,0,0-.19c0-.1-.08-.14-.17-.12s-.11.07-.12.15.09.24,0,.31-.21,0-.32,0H47a.69.69,0,0,1-.32,0c-.11-.06,0-.2,0-.3s0-.15-.13-.16a.13.13,0,0,0-.16.13v0c-.05.27-.05.27-.32.24l-.55-.09c-.11,0-.15,0-.11-.17s.13-.28-.06-.33-.19.14-.22.26-.06.14-.17.1-.46-.17-.69-.24-.13-.07-.07-.18.18-.27,0-.34-.21.11-.24.22-.12.12-.21.07l-.62-.35c-.1-.06-.12-.11,0-.19A.57.57,0,0,0,43.1,98c0-.08.06-.17,0-.22s-.16,0-.22.07-.18.22-.41,0-.29-.25-.44-.36-.07-.1,0-.16a1.14,1.14,0,0,0,.15-.16.14.14,0,0,0,0-.19.15.15,0,0,0-.18,0l0,0c-.21.17-.21.18-.4,0l-.38-.43c-.06-.07-.06-.12,0-.17a.7.7,0,0,0,.17-.13.13.13,0,0,0,0-.19.14.14,0,0,0-.19,0h0c-.08.05-.17.17-.24.14s-.13-.16-.19-.25-.18-.32-.28-.47,0-.12.06-.17.3-.08.21-.27-.23,0-.33,0-.15,0-.19-.06-.18-.46-.26-.69,0-.14.09-.17.3,0,.26-.21-.23-.11-.34-.06-.16,0-.18-.1-.08-.47-.14-.7,0-.17.12-.17h.14c.09,0,.16-.06.15-.16s-.08-.14-.18-.14c-.29,0-.29,0-.3-.28s0-.37,0-.56,0-.14.14-.12.31.07.33-.13-.17-.16-.29-.16-.16,0-.14-.16.08-.57.13-.86c0-.12.07-.13.17-.1l.18,0c.08,0,.15,0,.16-.11a.14.14,0,0,0-.09-.17c-.1,0-.25,0-.28-.1s.05-.24.09-.36.11-.3.16-.46.08-.11.16-.06l.18.08a.14.14,0,0,0,.19-.09c0-.08,0-.13-.07-.17s-.26-.07-.26-.15a.88.88,0,0,1,.15-.35c.08-.14.17-.28.25-.43s.08-.08.15,0L41,88a.16.16,0,0,0,.19,0,.14.14,0,0,0,0-.19l0,0c-.23-.19-.23-.19,0-.42l.19-.24c.08-.09.14-.2.23-.24s.15.12.24.17.14.08.21,0,.05-.15,0-.23-.21-.14-.18-.22.15-.16.24-.24.27-.22.39-.34.12,0,.18,0,.14.31.31.18,0-.24-.08-.34-.07-.13,0-.19a6.5,6.5,0,0,0,.63-.37c.11-.07.16,0,.2.06a.91.91,0,0,0,.09.17.13.13,0,0,0,.19,0,.16.16,0,0,0,.06-.19h0c0-.1-.15-.2-.1-.27s.19-.1.29-.14l.27-.1a.75.75,0,0,1,.31-.1c.12,0,.08.18.12.27s.11.14.2.1.1-.1.09-.19c-.07-.3-.07-.3.23-.36l.32-.06c.11,0,.23-.07.32,0s0,.18.06.28a.15.15,0,0,0,.16.14c.1,0,.14-.08.14-.18,0-.29,0-.3.29-.31h.52c.15,0,.18,0,.15.18s-.06.28.12.29.17-.15.17-.27,0-.19.17-.16.46.08.69.11.16.05.12.19-.14.27.06.32.18-.14.21-.25,0-.16.18-.11.46.16.69.24.12.07.07.17-.18.27,0,.35.21-.12.25-.24.09-.12.18-.06.44.25.66.36.09.11,0,.18a1.4,1.4,0,0,0-.1.16.14.14,0,0,0,.23.16l0,0c.05-.08.09-.22.17-.22s.18.11.26.17l.42.35c.08.06.1.1,0,.17a.86.86,0,0,0-.13.14.15.15,0,0,0,.2.21v0c.07-.06.17-.2.2-.19a1.13,1.13,0,0,1,.26.23c.12.13.22.27.34.4s.08.12,0,.17a.88.88,0,0,0-.15.12.14.14,0,0,0,0,.2.12.12,0,0,0,.19,0c.09,0,.22-.17.25-.15a.86.86,0,0,1,.23.3C53.44,88.13,53.53,88.3,53.64,88.48Zm0,3.47A6.65,6.65,0,1,0,47,98.61,6.64,6.64,0,0,0,53.64,92Z" transform="translate(-24 -66.2)"/><path class="cls-2" d="M53.64,92A6.65,6.65,0,1,1,47,85.3,6.65,6.65,0,0,1,53.64,92Zm-2.66-4a.07.07,0,0,0,.1,0c.15-.12.24,0,.33.08a6.62,6.62,0,0,1,.47.61,6.71,6.71,0,0,1,1,2.65c0-.09,0-.11,0-.14a.81.81,0,0,0,0-.16,5.84,5.84,0,0,0-1.36-3.07c-.13-.15-.2-.26-.07-.43l0,0c-.17.17-.29.07-.43-.06A5.59,5.59,0,0,0,47.37,86l.24,0,.23,0a5.78,5.78,0,0,1,3.1,1.49c.16.14.19.25,0,.4h0v0Zm-8,8c-.14.13-.25.12-.39,0a6.72,6.72,0,0,1-1.28-2.29,7,7,0,0,1-.18-.69c0-.22-.07-.45-.11-.67A5.8,5.8,0,0,0,42.41,96c.13.15.17.27.05.43l0,0c.16-.18.28-.07.43,0a5.26,5.26,0,0,0,3.66,1.38c.06,0,.12,0,.17,0-.14.08-.26,0-.38,0a5.84,5.84,0,0,1-3.32-1.51c-.13-.12-.22-.22-.08-.39S43,96,43,96l0,0h0Zm9.41-4A5.38,5.38,0,1,0,47,97.33,5.36,5.36,0,0,0,52.36,92Zm-9.9-4.55c.11.26.11.26-.07.46A5.64,5.64,0,0,0,41,91.54a.65.65,0,0,0,0-.2,1.55,1.55,0,0,1,0-.21A5.73,5.73,0,0,1,42.52,88c.13-.14.23-.23.41-.09l.06,0c-.22-.2,0-.3.1-.42a6.44,6.44,0,0,1,2.65-1.36c.3-.07.6-.11.9-.17a5.93,5.93,0,0,0-3.7,1.39C42.79,87.47,42.66,87.59,42.46,87.41Zm5.22,10.48a.28.28,0,0,0,.18,0A5.89,5.89,0,0,0,51,96.59c.15-.13.28-.32.53-.09-.2-.22-.07-.34.06-.48a5.49,5.49,0,0,0,1.07-1.84,4.64,4.64,0,0,0,.3-1.64l-.06.3a5.7,5.7,0,0,1-1.45,3c-.13.16-.24.24-.43.1l0,0c0,.1.17.18,0,.31A6.49,6.49,0,0,1,47.68,97.89Z" transform="translate(-24 -66.2)"/><path class="cls-3" d="M52.36,92A5.38,5.38,0,1,1,47,86.58,5.37,5.37,0,0,1,52.36,92ZM47,97.06A5.11,5.11,0,1,0,41.88,92,5.1,5.1,0,0,0,47,97.06Z" transform="translate(-24 -66.2)"/><path class="cls-3" d="M43,95.94A0,0,0,0,1,43,96c-.14.17,0,.27.08.39a5.84,5.84,0,0,0,3.32,1.51c.12,0,.24.13.38,0,0,0-.11,0-.17,0a5.26,5.26,0,0,1-3.66-1.38c-.15-.12-.27-.23-.43,0l0,0c.12-.16.08-.28-.05-.43A5.8,5.8,0,0,1,41,92.26c0,.22.07.45.11.67a7,7,0,0,0,.18.69,6.72,6.72,0,0,0,1.28,2.29c.14.16.25.17.39,0Z" transform="translate(-24 -66.2)"/><path class="cls-3" d="M42.46,87.41c.2.18.33.06.48-.07A5.93,5.93,0,0,1,46.64,86c-.3.06-.6.1-.9.17a6.44,6.44,0,0,0-2.65,1.36c-.14.12-.32.22-.1.42l-.06,0c-.18-.14-.28-.05-.41.09a5.73,5.73,0,0,0-1.46,3.11,1.55,1.55,0,0,0,0,.21.65.65,0,0,1,0,.2,5.64,5.64,0,0,1,1.41-3.67C42.57,87.67,42.57,87.67,42.46,87.41Z" transform="translate(-24 -66.2)"/><path class="cls-3" d="M51,87.91c.15-.15.12-.26,0-.4A5.78,5.78,0,0,0,47.84,86l-.23,0-.24,0a5.59,5.59,0,0,1,3.69,1.4c.14.13.26.23.43.06l0,0c-.13.17-.06.28.07.43A5.84,5.84,0,0,1,52.94,91a.81.81,0,0,1,0,.16s0,0,0,.14a6.71,6.71,0,0,0-1-2.65,6.62,6.62,0,0,0-.47-.61c-.09-.11-.18-.2-.33-.08a.07.07,0,0,1-.1,0Z" transform="translate(-24 -66.2)"/><path class="cls-3" d="M47.68,97.89A6.49,6.49,0,0,0,51,96.3c.14-.13,0-.21,0-.31l0,0c.19.14.3.06.43-.1a5.7,5.7,0,0,0,1.45-3l.06-.3a4.64,4.64,0,0,1-.3,1.64A5.49,5.49,0,0,1,51.6,96c-.13.14-.26.26-.06.48-.25-.23-.38,0-.53.09a5.89,5.89,0,0,1-3.15,1.33A.28.28,0,0,1,47.68,97.89Z" transform="translate(-24 -66.2)"/><path class="cls-3" d="M51,87.91l0,0v0Z" transform="translate(-24 -66.2)"/><path class="cls-3" d="M43,96l0,0h0l0,0Z" transform="translate(-24 -66.2)"/><path class="cls-2" d="M47,97.06A5.11,5.11,0,1,1,52.1,92,5.1,5.1,0,0,1,47,97.06Zm-2.69-6.9h0l0,0a3.25,3.25,0,0,0-1.07-.68A5.43,5.43,0,0,0,44.3,90.16Zm5.37,3.58s-.06,0-.09,0l.07,0a3.36,3.36,0,0,0,1,.68A4,4,0,0,0,49.67,93.74ZM49.54,92A2.55,2.55,0,1,0,47,94.5,2.56,2.56,0,0,0,49.54,92Zm1.8,2.27a4.93,4.93,0,0,0,0-4.44c-.06-.13-.1,0-.14,0l-1.39,1.29a.17.17,0,0,0-.06.2,2.65,2.65,0,0,1,0,1.37.17.17,0,0,0,.05.19Zm-8.67-4.51c-.07,0-.07.06-.08.09a4.88,4.88,0,0,0,0,4.3c.05.09.07.12.16,0l1.38-1.29a.19.19,0,0,0,.06-.22,2.72,2.72,0,0,1,0-1.33.2.2,0,0,0-.07-.24l-1.36-1.26Zm4.89,7.11a4.88,4.88,0,0,0,3.11-1.64.27.27,0,0,0-.15-.09c-.46-.22-.92-.43-1.37-.67-.26-.13-.48-.2-.71,0a.3.3,0,0,1-.16.08c-.34.07-.44.31-.47.63C47.75,95.71,47.65,96.25,47.56,96.82Zm.08-9.73c-.09,0-.07,0-.06.12.1.63.2,1.26.29,1.89a.14.14,0,0,0,.11.14,2.7,2.7,0,0,1,.71.38.12.12,0,0,0,.14,0l1.76-.84c.07,0,.09-.06,0-.13A5,5,0,0,0,47.64,87.09Zm-4.35,1.65,1.85.88a.14.14,0,0,0,.18,0,2.69,2.69,0,0,1,.65-.34c.1,0,.12-.08.14-.17.09-.61.18-1.21.28-1.81,0-.16,0-.19-.15-.16A4.88,4.88,0,0,0,43.29,88.74Zm0,6.43a5,5,0,0,0,3.12,1.65.76.76,0,0,1,0-.14c-.09-.59-.19-1.18-.27-1.77a.29.29,0,0,0-.24-.29.78.78,0,0,1-.33-.16c-.25-.24-.48-.17-.75,0C44.32,94.69,43.81,94.92,43.29,95.17ZM47,94.9a8.33,8.33,0,0,0,0,1.8A6.78,6.78,0,0,0,47,94.9Zm0-7.71a6.15,6.15,0,0,0,0,1.66A6.15,6.15,0,0,0,47,87.19Zm3.74,2.22a4.08,4.08,0,0,0-1.13.76A3.75,3.75,0,0,0,50.73,89.41ZM44.3,93.78a3.49,3.49,0,0,0-1.06.72A3.37,3.37,0,0,0,44.3,93.78Z" transform="translate(-24 -66.2)"/><path class="cls-3" d="M49.54,92A2.55,2.55,0,1,1,47,89.4,2.56,2.56,0,0,1,49.54,92ZM45,92a2,2,0,1,0,1.89-2A2,2,0,0,0,45,92Z" transform="translate(-24 -66.2)"/><path class="cls-4" d="M51.34,94.22l-1.5-1.39a.17.17,0,0,1-.05-.19,2.65,2.65,0,0,0,0-1.37.17.17,0,0,1,.06-.2l1.39-1.29s.08-.13.14,0A4.93,4.93,0,0,1,51.34,94.22Z" transform="translate(-24 -66.2)"/><path class="cls-4" d="M42.67,89.71l.08.08,1.36,1.26a.2.2,0,0,1,.07.24,2.72,2.72,0,0,0,0,1.33.19.19,0,0,1-.06.22l-1.38,1.29c-.09.09-.11.06-.16,0a4.88,4.88,0,0,1,0-4.3S42.6,89.7,42.67,89.71Z" transform="translate(-24 -66.2)"/><path class="cls-3" d="M47.56,96.82c.09-.57.19-1.11.25-1.66,0-.32.13-.56.47-.63a.3.3,0,0,0,.16-.08c.23-.23.45-.16.71,0,.45.24.91.45,1.37.67a.27.27,0,0,1,.15.09A4.88,4.88,0,0,1,47.56,96.82Z" transform="translate(-24 -66.2)"/><path class="cls-3" d="M47.64,87.09a5,5,0,0,1,3,1.57c.06.07,0,.09,0,.13l-1.76.84a.12.12,0,0,1-.14,0,2.7,2.7,0,0,0-.71-.38.14.14,0,0,1-.11-.14c-.09-.63-.19-1.26-.29-1.89C47.57,87.14,47.55,87.06,47.64,87.09Z" transform="translate(-24 -66.2)"/><path class="cls-3" d="M43.29,88.74a4.88,4.88,0,0,1,3-1.63c.15,0,.18,0,.15.16-.1.6-.19,1.2-.28,1.81,0,.09,0,.14-.14.17a2.69,2.69,0,0,0-.65.34.14.14,0,0,1-.18,0Z" transform="translate(-24 -66.2)"/><path class="cls-4" d="M43.29,95.17c.52-.25,1-.48,1.52-.74.27-.14.5-.21.75,0a.78.78,0,0,0,.33.16.29.29,0,0,1,.24.29c.08.59.18,1.18.27,1.77a.76.76,0,0,0,0,.14A5,5,0,0,1,43.29,95.17Z" transform="translate(-24 -66.2)"/><path class="cls-3" d="M47,94.9a6.78,6.78,0,0,1,0,1.8A8.33,8.33,0,0,1,47,94.9Z" transform="translate(-24 -66.2)"/><path class="cls-3" d="M47,87.19a6.15,6.15,0,0,1,0,1.66A6.15,6.15,0,0,1,47,87.19Z" transform="translate(-24 -66.2)"/><path class="cls-3" d="M50.73,89.41a3.75,3.75,0,0,1-1.13.76A4.08,4.08,0,0,1,50.73,89.41Z" transform="translate(-24 -66.2)"/><path class="cls-3" d="M44.3,93.78a3.37,3.37,0,0,1-1.06.72A3.49,3.49,0,0,1,44.3,93.78Z" transform="translate(-24 -66.2)"/><path class="cls-3" d="M49.67,93.74a4,4,0,0,1,1,.71,3.36,3.36,0,0,1-1-.68Z" transform="translate(-24 -66.2)"/><path class="cls-3" d="M44.3,90.16a5.43,5.43,0,0,1-1-.72,3.25,3.25,0,0,1,1.07.68Z" transform="translate(-24 -66.2)"/><path class="cls-3" d="M49.65,93.77l-.07,0s.06,0,.09,0Z" transform="translate(-24 -66.2)"/><path class="cls-3" d="M44.32,90.12l0,0h0Z" transform="translate(-24 -66.2)"/><path class="cls-2" d="M45,92a2,2,0,1,1,2.06,1.88A2,2,0,0,1,45,92Zm3,.46s0,0-.05.06a1.41,1.41,0,0,1-.65.42,1.21,1.21,0,0,1-1.44-.55l-.05,0h0l0,0c-.07,0,0,.08,0,.11a1.19,1.19,0,0,0,1,.65A1.18,1.18,0,0,0,48,92.57s0,0,0-.06a0,0,0,0,0,0-.05S48.07,92.47,48.06,92.49Zm0-1.08,0-.06a1.21,1.21,0,0,0-2.13,0l0,.06a.09.09,0,0,0-.06.06h0s.06,0,0-.08,0,0,0,0a1.35,1.35,0,0,1,2.09,0s0,.06,0,0,0,0,0,.06h0S48.1,91.41,48.07,91.41Zm-2,1.77L46,93.13l-.3-.33,0-.06s0-.1-.11-.13a.24.24,0,0,0,.09.16v0c.1.11.15.27.29.33l.06.06a.15.15,0,0,0,.1.06c0,.06.09.07.15.1a1.39,1.39,0,0,0,.63.13.2.2,0,0,1-.24,0l-.38-.17a.26.26,0,0,0-.14-.09A.16.16,0,0,0,46,93.18Zm1.71-2.63s0,0,0,0l0,0,.07,0a.56.56,0,0,0,.24.13A.35.35,0,0,0,47.73,90.55Zm-2,.44a.84.84,0,0,0,.23-.23l.48-.29a1,1,0,0,0-.51.26.61.61,0,0,0-.22.23l-.06.1a1.31,1.31,0,0,0-.25.55l.27-.53ZM48,90.74s0,0,0,0,0,0,0,0l.22.22.06.09.2.38a.67.67,0,0,0-.18-.4l0-.1C48.18,90.88,48.15,90.78,48,90.74Zm-.48,2.67a.59.59,0,0,0,.4-.21Zm.52-.27s0,0,0,0l-.06.05s0,0,0,0S48.05,93.15,48.07,93.14Z" transform="translate(-24 -66.2)"/><path class="cls-3" d="M45.92,92.42a1.21,1.21,0,0,0,1.44.55,1.41,1.41,0,0,0,.65-.42l0,0a1.18,1.18,0,0,1-1.08.61,1.19,1.19,0,0,1-1-.65s-.07-.08,0-.11Z" transform="translate(-24 -66.2)"/><path class="cls-3" d="M48,91.37a1.35,1.35,0,0,0-2.09,0l0,0a1.21,1.21,0,0,1,2.13,0Z" transform="translate(-24 -66.2)"/><path class="cls-3" d="M45.69,91.08l-.27.53a1.31,1.31,0,0,1,.25-.55Z" transform="translate(-24 -66.2)"/><path class="cls-3" d="M46.25,93.34l.38.17a.2.2,0,0,0,.24,0,1.39,1.39,0,0,1-.63-.13Z" transform="translate(-24 -66.2)"/><path class="cls-3" d="M46,90.73a1,1,0,0,1,.51-.26l-.48.29Z" transform="translate(-24 -66.2)"/><path class="cls-3" d="M45.67,92.8l.3.33,0,0c-.14-.06-.19-.22-.29-.33Z" transform="translate(-24 -66.2)"/><path class="cls-3" d="M47.55,93.41l.4-.21A.59.59,0,0,1,47.55,93.41Z" transform="translate(-24 -66.2)"/><path class="cls-3" d="M48.3,91.06a.67.67,0,0,1,.18.4l-.2-.38Z" transform="translate(-24 -66.2)"/><path class="cls-3" d="M48,90.74c.12,0,.15.14.22.22l0,0L48,90.77Z" transform="translate(-24 -66.2)"/><path class="cls-3" d="M46,90.76a.84.84,0,0,1-.23.23l0,0a.61.61,0,0,1,.22-.23Z" transform="translate(-24 -66.2)"/><path class="cls-3" d="M47.73,90.55a.35.35,0,0,1,.23.14.56.56,0,0,1-.24-.13Z" transform="translate(-24 -66.2)"/><path class="cls-3" d="M48.07,93.14s0,0-.07,0,0,0,0,0L48,93.1S48.07,93.11,48.07,93.14Z" transform="translate(-24 -66.2)"/><path class="cls-3" d="M45.63,92.77a.24.24,0,0,1-.09-.16c.08,0,.08.09.11.13Z" transform="translate(-24 -66.2)"/><path class="cls-3" d="M46.11,93.25a.26.26,0,0,1,.14.09v0c-.06,0-.12,0-.15-.1Z" transform="translate(-24 -66.2)"/><path class="cls-3" d="M48.28,91.08,48.22,91l0,0,0,.1Z" transform="translate(-24 -66.2)"/><path class="cls-3" d="M46,93.18a.16.16,0,0,1,.09.07l0,0a.15.15,0,0,1-.1-.06Z" transform="translate(-24 -66.2)"/><path class="cls-3" d="M45.67,91.06l.06-.1,0,0-.06.09Z" transform="translate(-24 -66.2)"/><path class="cls-3" d="M45.9,91.4s0,.06,0,.08h0a.09.09,0,0,1,.06-.06Z" transform="translate(-24 -66.2)"/><path class="cls-3" d="M48.07,91.41s0,0,0,0h0s0,0,0-.06Z" transform="translate(-24 -66.2)"/><path class="cls-3" d="M48.08,92.51s0,.06,0,.06l0,0s0-.06.05-.06Z" transform="translate(-24 -66.2)"/><path class="cls-3" d="M47.72,90.56l-.07,0,0,0s0,0,0,0Z" transform="translate(-24 -66.2)"/><path class="cls-3" d="M46,93.13l.05.05,0,0-.06-.06Z" transform="translate(-24 -66.2)"/><path class="cls-3" d="M45.9,91.41l0-.06,0,0s0,.06,0,0Z" transform="translate(-24 -66.2)"/><path class="cls-3" d="M48.05,91.35l0,.06h0s0,0,0,0Z" transform="translate(-24 -66.2)"/><path class="cls-3" d="M45.91,92.42l0,0h0l.05,0Z" transform="translate(-24 -66.2)"/><path class="cls-3" d="M48.06,92.49s0,0,0,0a0,0,0,0,1,0,.05Z" transform="translate(-24 -66.2)"/><path class="cls-3" d="M45.65,92.74l0,.06,0,0v0Z" transform="translate(-24 -66.2)"/><path class="cls-3" d="M48,90.77s0,0,0,0,0,0,0,0Z" transform="translate(-24 -66.2)"/><path class="cls-2" d="M148,94a8,8,0,1,1-7.95-8A8,8,0,0,1,148,94Zm-1.36-3.49c-.11-.18-.2-.35-.31-.52a.86.86,0,0,0-.23-.3s-.16.1-.25.15a.12.12,0,0,1-.19,0,.14.14,0,0,1,0-.2.88.88,0,0,1,.15-.12c.1,0,.08-.1,0-.17s-.22-.27-.34-.4a1.13,1.13,0,0,0-.26-.23s-.13.13-.2.19v0a.15.15,0,0,1-.2-.21.86.86,0,0,1,.13-.14c.09-.07.07-.11,0-.17l-.42-.35c-.08-.06-.17-.16-.26-.17s-.12.14-.17.22l0,0a.14.14,0,0,1-.23-.16,1.4,1.4,0,0,1,.1-.16c.06-.07.07-.12,0-.18s-.44-.24-.66-.36-.13,0-.18.06-.06.32-.25.24-.06-.24,0-.35,0-.14-.07-.17-.46-.15-.69-.24-.16,0-.18.11,0,.29-.21.25-.1-.22-.06-.32,0-.17-.12-.19-.46-.06-.69-.11-.18,0-.17.16,0,.29-.17.27-.14-.17-.12-.29,0-.19-.15-.18h-.52c-.3,0-.3,0-.29.31,0,.1,0,.17-.14.18a.15.15,0,0,1-.16-.14c0-.1,0-.24-.06-.28s-.21,0-.32,0l-.32.06c-.3.06-.3.06-.23.36,0,.09,0,.16-.09.19s-.15,0-.2-.1,0-.25-.12-.27a.75.75,0,0,0-.31.1l-.27.1c-.1,0-.24.06-.29.14s.07.17.1.27h0a.16.16,0,0,1-.06.19.13.13,0,0,1-.19,0,.91.91,0,0,1-.09-.17c0-.1-.09-.13-.2-.06a6.5,6.5,0,0,1-.63.37c-.1.06-.09.1,0,.19s.25.22.08.34-.24-.07-.31-.18-.1-.1-.18,0-.26.23-.39.34-.22.15-.24.24.12.14.18.22.09.15,0,.23-.14,0-.21,0-.12-.22-.24-.17-.15.15-.23.24l-.19.24c-.18.23-.18.23.05.42l0,0a.14.14,0,0,1,0,.19.16.16,0,0,1-.19,0l-.19-.13c-.07-.05-.11-.05-.15,0s-.17.29-.25.43a.88.88,0,0,0-.15.35c0,.08.17.09.26.15s.11.09.07.17a.14.14,0,0,1-.19.09l-.18-.08c-.08-.05-.13,0-.16.06s-.11.31-.16.46-.13.25-.09.36.18.06.28.1a.14.14,0,0,1,.09.17c0,.08-.08.11-.16.11l-.18,0c-.1,0-.15,0-.17.1,0,.29-.09.58-.13.86s0,.16.14.16.3,0,.29.16-.2.15-.33.13-.15,0-.14.12,0,.38,0,.56,0,.29.3.28c.1,0,.17,0,.18.14s-.06.15-.15.16h-.14c-.11,0-.15,0-.12.17s.1.46.14.7.06.14.18.1.29-.14.34.06-.15.18-.26.21-.13.06-.09.17.17.46.26.69.09.12.19.06.24-.18.33,0-.1.22-.21.27-.12.08-.06.17.18.31.28.47.11.21.19.25.16-.09.24-.14h0a.14.14,0,0,1,.19,0,.13.13,0,0,1,0,.19.7.7,0,0,1-.17.13c-.08,0-.08.1,0,.17l.38.43c.19.21.19.2.4,0l.05,0a.15.15,0,0,1,.18,0,.14.14,0,0,1,0,.19,1.14,1.14,0,0,1-.15.16c-.06.06-.07.1,0,.16s.29.24.44.36.24.18.41,0,.14-.12.22-.07.08.14,0,.22a.57.57,0,0,1-.08.13c-.08.08-.06.13,0,.19l.62.35c.09,0,.16.07.21-.07s.07-.29.24-.22.07.23,0,.34,0,.14.07.18.46.15.69.24.15,0,.17-.1,0-.31.22-.26.09.22.06.33,0,.16.11.17l.55.09c.27,0,.27,0,.32-.24v0a.13.13,0,0,1,.16-.13c.08,0,.12.07.13.16s-.09.24,0,.3a.69.69,0,0,0,.32,0h.26c.11,0,.23,0,.32,0s0-.21,0-.31,0-.14.12-.15.15,0,.17.12a1.11,1.11,0,0,1,0,.19c0,.1,0,.13.14.11l.48-.08a.85.85,0,0,0,.34-.1c.08-.07,0-.19-.05-.3a.16.16,0,0,1,.11-.18.14.14,0,0,1,.17.1,1.27,1.27,0,0,1,.06.18q0,.15.15.09l.49-.18c.11,0,.25-.06.31-.15s-.07-.17-.11-.27h0a.13.13,0,0,1,.06-.18.13.13,0,0,1,.19,0,.66.66,0,0,1,.09.19c0,.1.09.11.18,0l.43-.25a1,1,0,0,0,.29-.21s-.1-.17-.16-.25a.15.15,0,0,1,0-.21.15.15,0,0,1,.21,0c.06.07.12.16.19.26l.5-.43c.09-.07.21-.14.23-.23s-.13-.14-.19-.22h0a.14.14,0,0,1,0-.21.15.15,0,0,1,.21,0l.13.13c.06.07.1.08.17,0a7.87,7.87,0,0,0,.55-.71,2.27,2.27,0,0,1-.25-.18.13.13,0,0,1,0-.2.13.13,0,0,1,.2,0,1.13,1.13,0,0,1,.18.12c.07.06.1,0,.14,0l.27-.47a.71.71,0,0,0,.14-.31c0-.08-.17-.09-.25-.15h0a.13.13,0,0,1-.06-.18.15.15,0,0,1,.18-.08,1.11,1.11,0,0,1,.19.09c.09,0,.12,0,.15-.06l.18-.49c0-.11.11-.23.08-.33s-.18-.06-.27-.1h0a.14.14,0,0,1-.09-.17.12.12,0,0,1,.16-.1.58.58,0,0,1,.19,0c.1,0,.14,0,.17-.1.06-.29.09-.59.13-.89,0-.13-.06-.12-.14-.12s-.3,0-.29-.16.19-.14.32-.13.16,0,.15-.14,0-.33,0-.5,0-.24,0-.32-.19,0-.3,0a.14.14,0,0,1-.16-.13.14.14,0,0,1,.12-.16h.15c.13,0,.19,0,.15-.18s-.07-.36-.1-.53-.07-.28-.34-.22c-.1,0-.19,0-.22-.09s0-.16.13-.19l.13,0c.1,0,.14-.07.09-.17s-.12-.34-.19-.51-.11-.27-.39-.17h0a.16.16,0,0,1-.2-.07.15.15,0,0,1,.08-.2Z" transform="translate(-24 -66.2)"/><path class="cls-3" d="M146.64,90.48l-.27.14a.15.15,0,0,0-.08.2.16.16,0,0,0,.2.07h0c.28-.1.28-.1.39.17s.12.34.19.51,0,.15-.09.17l-.13,0c-.09,0-.17.07-.13.19s.12.11.22.09c.27-.06.28-.06.34.22s.06.35.1.53,0,.18-.15.18h-.15a.14.14,0,0,0-.12.16.14.14,0,0,0,.16.13c.11,0,.24-.08.3,0s0,.21,0,.32,0,.34,0,.5,0,.16-.15.14-.31-.08-.32.13.17.14.29.16.16,0,.14.12c0,.3-.07.6-.13.89,0,.12-.07.14-.17.1a.58.58,0,0,0-.19,0,.12.12,0,0,0-.16.1.14.14,0,0,0,.09.17h0c.09,0,.25,0,.27.1s0,.22-.08.33l-.18.49c0,.09-.06.11-.15.06a1.11,1.11,0,0,0-.19-.09.15.15,0,0,0-.18.08.13.13,0,0,0,.06.18h0c.08.06.24.07.25.15a.71.71,0,0,1-.14.31l-.27.47c0,.07-.07.09-.14,0a1.13,1.13,0,0,0-.18-.12.13.13,0,0,0-.2,0,.13.13,0,0,0,0,.2,2.27,2.27,0,0,0,.25.18,7.87,7.87,0,0,1-.55.71c-.07.07-.11.06-.17,0l-.13-.13a.15.15,0,0,0-.21,0,.14.14,0,0,0,0,.21h0c.06.08.21.14.19.22s-.14.16-.23.23l-.5.43c-.07-.1-.13-.19-.19-.26a.15.15,0,0,0-.21,0,.15.15,0,0,0,0,.21c.06.08.18.22.16.25a1,1,0,0,1-.29.21l-.43.25c-.09.06-.14,0-.18,0a.66.66,0,0,0-.09-.19.13.13,0,0,0-.19,0,.13.13,0,0,0-.06.18h0c0,.1.16.21.11.27s-.2.11-.31.15l-.49.18q-.13.06-.15-.09a1.27,1.27,0,0,0-.06-.18.14.14,0,0,0-.17-.1.16.16,0,0,0-.11.18c0,.11.13.23.05.3a.85.85,0,0,1-.34.1l-.48.08c-.1,0-.14,0-.14-.11a1.11,1.11,0,0,0,0-.19c0-.1-.08-.14-.17-.12s-.11.07-.12.15.09.24,0,.31-.21,0-.32,0H140a.69.69,0,0,1-.32,0c-.11-.06,0-.2,0-.3s0-.15-.13-.16a.13.13,0,0,0-.16.13v0c-.05.27-.05.27-.32.24l-.55-.09c-.11,0-.15,0-.11-.17s.13-.28-.06-.33-.19.14-.22.26-.06.14-.17.1-.46-.17-.69-.24-.13-.07-.07-.18.18-.27,0-.34-.21.11-.24.22-.12.12-.21.07l-.62-.35c-.1-.06-.12-.11,0-.19a.57.57,0,0,0,.08-.13c.05-.08.06-.17,0-.22s-.16,0-.22.07-.18.22-.41,0-.29-.25-.44-.36-.07-.1,0-.16a1.14,1.14,0,0,0,.15-.16.14.14,0,0,0,0-.19.15.15,0,0,0-.18,0l-.05,0c-.21.17-.21.18-.4,0l-.38-.43c-.06-.07-.06-.12,0-.17a.7.7,0,0,0,.17-.13.13.13,0,0,0,0-.19.14.14,0,0,0-.19,0h0c-.08.05-.17.17-.24.14s-.13-.16-.19-.25-.18-.32-.28-.47,0-.12.06-.17.3-.08.21-.27-.23,0-.33,0-.15,0-.19-.06-.18-.46-.26-.69,0-.14.09-.17.3,0,.26-.21-.23-.11-.34-.06-.16,0-.18-.1-.08-.47-.14-.7,0-.17.12-.17h.14c.09,0,.16-.06.15-.16s-.08-.14-.18-.14c-.29,0-.29,0-.3-.28s0-.37,0-.56,0-.14.14-.12.31.07.33-.13-.17-.16-.29-.16-.16,0-.14-.16.08-.57.13-.86c0-.12.07-.13.17-.1l.18,0c.08,0,.15,0,.16-.11a.14.14,0,0,0-.09-.17c-.1,0-.25,0-.28-.1s0-.24.09-.36.11-.3.16-.46.08-.11.16-.06l.18.08a.14.14,0,0,0,.19-.09c0-.08,0-.13-.07-.17s-.26-.07-.26-.15a.88.88,0,0,1,.15-.35c.08-.14.17-.28.25-.43s.08-.08.15,0L134,90a.16.16,0,0,0,.19,0,.14.14,0,0,0,0-.19l0,0c-.23-.19-.23-.19-.05-.42l.19-.24c.08-.09.14-.2.23-.24s.15.12.24.17.14.08.21,0,.05-.15,0-.23-.21-.14-.18-.22.15-.16.24-.24.27-.22.39-.34.12,0,.18,0,.14.31.31.18,0-.24-.08-.34-.07-.13,0-.19a6.5,6.5,0,0,0,.63-.37c.11-.07.16,0,.2.06a.91.91,0,0,0,.09.17.13.13,0,0,0,.19,0,.16.16,0,0,0,.06-.19h0c0-.1-.15-.2-.1-.27s.19-.1.29-.14l.27-.1a.75.75,0,0,1,.31-.1c.12,0,.08.18.12.27s.11.14.2.1.1-.1.09-.19c-.07-.3-.07-.3.23-.36l.32-.06c.11,0,.23-.07.32,0s.05.18.06.28a.15.15,0,0,0,.16.14c.1,0,.14-.08.14-.18,0-.29,0-.3.29-.31h.52c.15,0,.18,0,.15.18s-.06.28.12.29.17-.15.17-.27,0-.19.17-.16.46.08.69.11.16.05.12.19-.14.27.06.32.18-.14.21-.25.05-.16.18-.11.46.16.69.24.12.07.07.17-.18.27,0,.35.21-.12.25-.24.09-.12.18-.06.44.25.66.36.09.11,0,.18a1.4,1.4,0,0,0-.1.16.14.14,0,0,0,.23.16l0,0c0-.08.09-.22.17-.22s.18.11.26.17l.42.35c.08.06.1.1,0,.17a.86.86,0,0,0-.13.14.15.15,0,0,0,.2.21v0c.07-.06.17-.2.2-.19a1.13,1.13,0,0,1,.26.23c.12.13.22.27.34.4s.08.12,0,.17a.88.88,0,0,0-.15.12.14.14,0,0,0,0,.2.12.12,0,0,0,.19,0c.09,0,.22-.17.25-.15a.86.86,0,0,1,.23.3C146.44,90.13,146.53,90.3,146.64,90.48Zm0,3.47a6.65,6.65,0,1,0-6.66,6.66A6.64,6.64,0,0,0,146.64,94Z" transform="translate(-24 -66.2)"/><path class="cls-2" d="M146.64,94A6.65,6.65,0,1,1,140,87.3,6.65,6.65,0,0,1,146.64,94Zm-2.66-4a.07.07,0,0,0,.1,0c.15-.12.24,0,.33.08a6.62,6.62,0,0,1,.47.61,6.71,6.71,0,0,1,1.05,2.65c0-.09,0-.11,0-.14a.81.81,0,0,0,0-.16,5.84,5.84,0,0,0-1.36-3.07c-.13-.15-.2-.26-.07-.43l0,0c-.17.17-.29.07-.43-.06a5.59,5.59,0,0,0-3.69-1.4l.24,0,.23,0a5.78,5.78,0,0,1,3.1,1.49c.16.14.19.25,0,.4h0v0Zm-8,8c-.14.13-.25.12-.39,0a6.72,6.72,0,0,1-1.28-2.29,7,7,0,0,1-.18-.69c0-.22-.07-.45-.11-.67A5.8,5.8,0,0,0,135.41,98c.13.15.17.27.05.43l0,0c.16-.18.28-.07.43,0a5.26,5.26,0,0,0,3.66,1.38c.06,0,.12,0,.17,0-.14.08-.26,0-.38,0a5.84,5.84,0,0,1-3.32-1.51c-.13-.12-.22-.22-.08-.39s0-.06,0-.07l0,0h0Zm9.41-4A5.38,5.38,0,1,0,140,99.33,5.36,5.36,0,0,0,145.36,94Zm-9.9-4.55c.11.26.11.26-.07.46A5.64,5.64,0,0,0,134,93.54a.65.65,0,0,0,0-.2,1.55,1.55,0,0,1,0-.21A5.73,5.73,0,0,1,135.52,90c.13-.14.23-.23.41-.09l.06,0c-.22-.2,0-.3.1-.42a6.44,6.44,0,0,1,2.65-1.36c.3-.07.6-.11.9-.17a5.93,5.93,0,0,0-3.7,1.39C135.79,89.47,135.66,89.59,135.46,89.41Zm5.22,10.48a.28.28,0,0,0,.18,0A5.89,5.89,0,0,0,144,98.59c.15-.13.28-.32.53-.09-.2-.22-.07-.34.06-.48a5.49,5.49,0,0,0,1.07-1.84,4.64,4.64,0,0,0,.3-1.64l-.06.3a5.7,5.7,0,0,1-1.45,3c-.13.16-.24.24-.43.1l0,0c0,.1.17.18,0,.31A6.49,6.49,0,0,1,140.68,99.89Z" transform="translate(-24 -66.2)"/><path class="cls-3" d="M145.36,94A5.38,5.38,0,1,1,140,88.58,5.37,5.37,0,0,1,145.36,94ZM140,99.06A5.11,5.11,0,1,0,134.88,94,5.1,5.1,0,0,0,140,99.06Z" transform="translate(-24 -66.2)"/><path class="cls-3" d="M136,97.94a0,0,0,0,1,0,.08c-.14.17-.05.27.08.39a5.84,5.84,0,0,0,3.32,1.51c.12,0,.24.13.38,0-.05,0-.11,0-.17,0a5.26,5.26,0,0,1-3.66-1.38c-.15-.12-.27-.23-.43,0l0,0c.12-.16.08-.28-.05-.43A5.8,5.8,0,0,1,134,94.26c0,.22.07.45.11.67a7,7,0,0,0,.18.69,6.72,6.72,0,0,0,1.28,2.29c.14.16.25.17.39,0Z" transform="translate(-24 -66.2)"/><path class="cls-3" d="M135.46,89.41c.2.18.33.06.48-.07a5.93,5.93,0,0,1,3.7-1.39c-.3.06-.6.1-.9.17a6.44,6.44,0,0,0-2.65,1.36c-.14.12-.32.22-.1.42l-.06,0c-.18-.14-.28-.05-.41.09a5.73,5.73,0,0,0-1.46,3.11,1.55,1.55,0,0,0,0,.21.65.65,0,0,1,0,.2,5.64,5.64,0,0,1,1.41-3.67C135.57,89.67,135.57,89.67,135.46,89.41Z" transform="translate(-24 -66.2)"/><path class="cls-3" d="M144,89.91c.15-.15.12-.26,0-.4a5.78,5.78,0,0,0-3.1-1.49l-.23,0-.24,0a5.59,5.59,0,0,1,3.69,1.4c.14.13.26.23.43.06l0,0c-.13.17-.06.28.07.43A5.84,5.84,0,0,1,145.94,93a.81.81,0,0,1,0,.16s0,0,0,.14a6.71,6.71,0,0,0-1.05-2.65,6.62,6.62,0,0,0-.47-.61c-.09-.11-.18-.2-.33-.08a.07.07,0,0,1-.1,0Z" transform="translate(-24 -66.2)"/><path class="cls-3" d="M140.68,99.89A6.49,6.49,0,0,0,144,98.3c.14-.13,0-.21,0-.31l0,0c.19.14.3.06.43-.1a5.7,5.7,0,0,0,1.45-3l.06-.3a4.64,4.64,0,0,1-.3,1.64A5.49,5.49,0,0,1,144.6,98c-.13.14-.26.26-.06.48-.25-.23-.38,0-.53.09a5.89,5.89,0,0,1-3.15,1.33A.28.28,0,0,1,140.68,99.89Z" transform="translate(-24 -66.2)"/><path class="cls-3" d="M144,89.91l0,0v0Z" transform="translate(-24 -66.2)"/><path class="cls-3" d="M136,98l0,0h0l0,0Z" transform="translate(-24 -66.2)"/><path class="cls-2" d="M140,99.06A5.11,5.11,0,1,1,145.1,94,5.1,5.1,0,0,1,140,99.06Zm-2.69-6.9h0l0,0a3.25,3.25,0,0,0-1.07-.68A5.43,5.43,0,0,0,137.3,92.16Zm5.37,3.58s-.06,0-.09,0l.07,0a3.36,3.36,0,0,0,1,.68A4,4,0,0,0,142.67,95.74ZM142.54,94A2.55,2.55,0,1,0,140,96.5,2.56,2.56,0,0,0,142.54,94Zm1.8,2.27a4.93,4.93,0,0,0,0-4.44c-.06-.13-.1,0-.14,0l-1.39,1.29a.17.17,0,0,0-.06.2,2.65,2.65,0,0,1,0,1.37.17.17,0,0,0,.05.19Zm-8.67-4.51c-.07,0-.07.06-.08.09a4.88,4.88,0,0,0,0,4.3c0,.09.07.12.16,0l1.38-1.29a.19.19,0,0,0,.06-.22,2.72,2.72,0,0,1,0-1.33.2.2,0,0,0-.07-.24l-1.36-1.26Zm4.89,7.11a4.88,4.88,0,0,0,3.11-1.64.27.27,0,0,0-.15-.09c-.46-.22-.92-.43-1.37-.67-.26-.13-.48-.2-.71,0a.3.3,0,0,1-.16.08c-.34.07-.44.31-.47.63C140.75,97.71,140.65,98.25,140.56,98.82Zm.08-9.73c-.09,0-.07,0-.06.12.1.63.2,1.26.29,1.89a.14.14,0,0,0,.11.14,2.7,2.7,0,0,1,.71.38.12.12,0,0,0,.14,0l1.76-.84c.07,0,.09-.06,0-.13A5,5,0,0,0,140.64,89.09Zm-4.35,1.65,1.85.88a.14.14,0,0,0,.18,0,2.69,2.69,0,0,1,.65-.34c.1,0,.12-.08.14-.17.09-.61.18-1.21.28-1.81,0-.16,0-.19-.15-.16A4.88,4.88,0,0,0,136.29,90.74Zm0,6.43a5,5,0,0,0,3.12,1.65.76.76,0,0,1,0-.14c-.09-.59-.19-1.18-.27-1.77a.29.29,0,0,0-.24-.29.78.78,0,0,1-.33-.16c-.25-.24-.48-.17-.75,0C137.32,96.69,136.81,96.92,136.29,97.17ZM140,96.9a8.33,8.33,0,0,0,0,1.8A6.78,6.78,0,0,0,140,96.9Zm0-7.71a6.15,6.15,0,0,0,0,1.66A6.15,6.15,0,0,0,140,89.19Zm3.74,2.22a4.08,4.08,0,0,0-1.13.76A3.75,3.75,0,0,0,143.73,91.41Zm-6.43,4.37a3.49,3.49,0,0,0-1.06.72A3.37,3.37,0,0,0,137.3,95.78Z" transform="translate(-24 -66.2)"/><path class="cls-3" d="M142.54,94A2.55,2.55,0,1,1,140,91.4,2.56,2.56,0,0,1,142.54,94ZM138,94a2,2,0,1,0,1.89-2A2,2,0,0,0,138,94Z" transform="translate(-24 -66.2)"/><path class="cls-4" d="M144.34,96.22l-1.5-1.39a.17.17,0,0,1-.05-.19,2.65,2.65,0,0,0,0-1.37.17.17,0,0,1,.06-.2l1.39-1.29s.08-.13.14,0A4.93,4.93,0,0,1,144.34,96.22Z" transform="translate(-24 -66.2)"/><path class="cls-4" d="M135.67,91.71l.08.08,1.36,1.26a.2.2,0,0,1,.07.24,2.72,2.72,0,0,0,0,1.33.19.19,0,0,1-.06.22l-1.38,1.29c-.09.09-.11.06-.16,0a4.88,4.88,0,0,1,0-4.3S135.6,91.7,135.67,91.71Z" transform="translate(-24 -66.2)"/><path class="cls-3" d="M140.56,98.82c.09-.57.19-1.11.25-1.66,0-.32.13-.56.47-.63a.3.3,0,0,0,.16-.08c.23-.23.45-.16.71,0,.45.24.91.45,1.37.67a.27.27,0,0,1,.15.09A4.88,4.88,0,0,1,140.56,98.82Z" transform="translate(-24 -66.2)"/><path class="cls-3" d="M140.64,89.09a5,5,0,0,1,3,1.57c.06.07,0,.09,0,.13l-1.76.84a.12.12,0,0,1-.14,0,2.7,2.7,0,0,0-.71-.38.14.14,0,0,1-.11-.14c-.09-.63-.19-1.26-.29-1.89C140.57,89.14,140.55,89.06,140.64,89.09Z" transform="translate(-24 -66.2)"/><path class="cls-3" d="M136.29,90.74a4.88,4.88,0,0,1,3-1.63c.15,0,.18,0,.15.16-.1.6-.19,1.2-.28,1.81,0,.09,0,.14-.14.17a2.69,2.69,0,0,0-.65.34.14.14,0,0,1-.18,0Z" transform="translate(-24 -66.2)"/><path class="cls-4" d="M136.29,97.17c.52-.25,1-.48,1.52-.74.27-.14.5-.21.75,0a.78.78,0,0,0,.33.16.29.29,0,0,1,.24.29c.08.59.18,1.18.27,1.77a.76.76,0,0,0,0,.14A5,5,0,0,1,136.29,97.17Z" transform="translate(-24 -66.2)"/><path class="cls-3" d="M140,96.9a6.78,6.78,0,0,1,0,1.8A8.33,8.33,0,0,1,140,96.9Z" transform="translate(-24 -66.2)"/><path class="cls-3" d="M140,89.19a6.15,6.15,0,0,1,0,1.66A6.15,6.15,0,0,1,140,89.19Z" transform="translate(-24 -66.2)"/><path class="cls-3" d="M143.73,91.41a3.75,3.75,0,0,1-1.13.76A4.08,4.08,0,0,1,143.73,91.41Z" transform="translate(-24 -66.2)"/><path class="cls-3" d="M137.3,95.78a3.37,3.37,0,0,1-1.06.72A3.49,3.49,0,0,1,137.3,95.78Z" transform="translate(-24 -66.2)"/><path class="cls-3" d="M142.67,95.74a4,4,0,0,1,1,.71,3.36,3.36,0,0,1-1-.68Z" transform="translate(-24 -66.2)"/><path class="cls-3" d="M137.3,92.16a5.43,5.43,0,0,1-1.05-.72,3.25,3.25,0,0,1,1.07.68Z" transform="translate(-24 -66.2)"/><path class="cls-3" d="M142.65,95.77l-.07,0s.06,0,.09,0Z" transform="translate(-24 -66.2)"/><path class="cls-3" d="M137.32,92.12l0,0h0Z" transform="translate(-24 -66.2)"/><path class="cls-2" d="M138,94a2,2,0,1,1,2.06,1.88A2,2,0,0,1,138,94Zm3,.46s0,0-.05.06a1.41,1.41,0,0,1-.65.42,1.21,1.21,0,0,1-1.44-.55l0,0h0l0,0c-.07,0,0,.08,0,.11a1.19,1.19,0,0,0,1,.65,1.18,1.18,0,0,0,1.08-.61s0,0,.05-.06a0,0,0,0,0,0-.05S141.07,94.47,141.06,94.49Zm0-1.08,0-.06a1.21,1.21,0,0,0-2.13,0l0,.06a.09.09,0,0,0-.06.06h0s.06,0,0-.08,0,0,0,0a1.35,1.35,0,0,1,2.09,0s0,.06,0,0,0,0,0,.06h0S141.1,93.41,141.07,93.41Zm-2,1.77-.05-.05-.3-.33,0-.06s0-.1-.11-.13a.24.24,0,0,0,.09.16v0c.1.11.15.27.29.33l.06.06a.15.15,0,0,0,.1.06c0,.06.09.07.15.1a1.39,1.39,0,0,0,.63.13.2.2,0,0,1-.24,0l-.38-.17a.26.26,0,0,0-.14-.09A.16.16,0,0,0,139,95.18Zm1.71-2.63s0,0,0,0l0,0,.07,0a.56.56,0,0,0,.24.13A.35.35,0,0,0,140.73,92.55Zm-2,.44a.84.84,0,0,0,.23-.23l.48-.29a1,1,0,0,0-.51.26.61.61,0,0,0-.22.23l-.06.1a1.31,1.31,0,0,0-.25.55l.27-.53Zm2.28-.25s0,0,0,0,0,0,0,0l.22.22.06.09.2.38a.67.67,0,0,0-.18-.4l-.05-.1C141.18,92.88,141.15,92.78,141,92.74Zm-.48,2.67a.59.59,0,0,0,.4-.21Zm.52-.27s0,0,0,0l-.06.05s0,0,0,0S141.05,95.15,141.07,95.14Z" transform="translate(-24 -66.2)"/><path class="cls-3" d="M138.92,94.42a1.21,1.21,0,0,0,1.44.55,1.41,1.41,0,0,0,.65-.42l0,0a1.18,1.18,0,0,1-1.08.61,1.19,1.19,0,0,1-1-.65s-.07-.08,0-.11Z" transform="translate(-24 -66.2)"/><path class="cls-3" d="M141,93.37a1.35,1.35,0,0,0-2.09,0l0,0a1.21,1.21,0,0,1,2.13,0Z" transform="translate(-24 -66.2)"/><path class="cls-3" d="M138.69,93.08l-.27.53a1.31,1.31,0,0,1,.25-.55Z" transform="translate(-24 -66.2)"/><path class="cls-3" d="M139.25,95.34l.38.17a.2.2,0,0,0,.24,0,1.39,1.39,0,0,1-.63-.13Z" transform="translate(-24 -66.2)"/><path class="cls-3" d="M139,92.73a1,1,0,0,1,.51-.26l-.48.29Z" transform="translate(-24 -66.2)"/><path class="cls-3" d="M138.67,94.8l.3.33,0,0c-.14-.06-.19-.22-.29-.33Z" transform="translate(-24 -66.2)"/><path class="cls-3" d="M140.55,95.41l.4-.21A.59.59,0,0,1,140.55,95.41Z" transform="translate(-24 -66.2)"/><path class="cls-3" d="M141.3,93.06a.67.67,0,0,1,.18.4l-.2-.38Z" transform="translate(-24 -66.2)"/><path class="cls-3" d="M141,92.74c.12,0,.15.14.22.22l0,0-.22-.22Z" transform="translate(-24 -66.2)"/><path class="cls-3" d="M139,92.76a.84.84,0,0,1-.23.23l0,0a.61.61,0,0,1,.22-.23Z" transform="translate(-24 -66.2)"/><path class="cls-3" d="M140.73,92.55a.35.35,0,0,1,.23.14.56.56,0,0,1-.24-.13Z" transform="translate(-24 -66.2)"/><path class="cls-3" d="M141.07,95.14s0,0-.07,0,0,0,0,0l.06-.05S141.07,95.11,141.07,95.14Z" transform="translate(-24 -66.2)"/><path class="cls-3" d="M138.63,94.77a.24.24,0,0,1-.09-.16c.08,0,.08.09.11.13Z" transform="translate(-24 -66.2)"/><path class="cls-3" d="M139.11,95.25a.26.26,0,0,1,.14.09v0c-.06,0-.12,0-.15-.1Z" transform="translate(-24 -66.2)"/><path class="cls-3" d="M141.28,93.08l-.06-.09,0,0,.05.1Z" transform="translate(-24 -66.2)"/><path class="cls-3" d="M139,95.18a.16.16,0,0,1,.09.07l0,0a.15.15,0,0,1-.1-.06Z" transform="translate(-24 -66.2)"/><path class="cls-3" d="M138.67,93.06l.06-.1,0,0-.06.09Z" transform="translate(-24 -66.2)"/><path class="cls-3" d="M138.9,93.4s0,.06,0,.08h0a.09.09,0,0,1,.06-.06Z" transform="translate(-24 -66.2)"/><path class="cls-3" d="M141.07,93.41s0,0,0,0h0s0,0,0-.06Z" transform="translate(-24 -66.2)"/><path class="cls-3" d="M141.08,94.51s0,.06-.05.06l0,0s0-.06.05-.06Z" transform="translate(-24 -66.2)"/><path class="cls-3" d="M140.72,92.56l-.07,0,0,0s0,0,0,0Z" transform="translate(-24 -66.2)"/><path class="cls-3" d="M139,95.13l.05.05,0,0-.06-.06Z" transform="translate(-24 -66.2)"/><path class="cls-3" d="M138.9,93.41l0-.06,0,0s0,.06,0,0Z" transform="translate(-24 -66.2)"/><path class="cls-3" d="M141.05,93.35l0,.06h0s0,0,0,0Z" transform="translate(-24 -66.2)"/><path class="cls-3" d="M138.91,94.42l0,0h0l0,0Z" transform="translate(-24 -66.2)"/><path class="cls-3" d="M141.06,94.49s0,0,0,0a0,0,0,0,1,0,.05Z" transform="translate(-24 -66.2)"/><path class="cls-3" d="M138.65,94.74l0,.06,0,0v0Z" transform="translate(-24 -66.2)"/><path class="cls-3" d="M141,92.77s0,0,0,0,0,0,0,0Z" transform="translate(-24 -66.2)"/><text class="cls-5" transform="translate(31.45 31.21)"><tspan xml:space="preserve">A R   P A R I S</tspan></text><path class="cls-6" d="M127,87.65c-3.46,0-6.91,0-10.37,0a1.36,1.36,0,0,1-1.38-.89c-.49-1-1-2-1.52-3-.34-.71-.2-1.09.53-1a3.5,3.5,0,0,0,1,0,41.38,41.38,0,0,0-6.14-1,16.8,16.8,0,0,1,3.28,4.89,3.05,3.05,0,0,0,3.14,1.85c3.81-.31,7.62-.47,11.44-.69Z" transform="translate(-24 -66.2)"/><path class="cls-7" d="M99.39,76.07l-1.94-.31-1.18-.19a.73.73,0,0,0-.78.34c-.52.77-1,1.55-1.54,2.32a.49.49,0,0,0,0,.59c.54.78,1.07,1.56,1.63,2.32a1,1,0,0,0,.93.38l3.2-.34s0,0,0,0a6.61,6.61,0,0,1-2.92,1.68,2.93,2.93,0,0,1-2.28-.41,6.22,6.22,0,0,1-2.25-2.25,1.64,1.64,0,0,0-1.5-.85c-2.47-.07-4.94-.19-7.41-.29l-7.87-.3a.1.1,0,0,1-.08,0l1.76-.13,5.75-.42,4.36-.32,3.66-.26a1,1,0,0,0,.85-.55A7.83,7.83,0,0,1,92.43,76a3.57,3.57,0,0,1,.95-.9,12.67,12.67,0,0,0-1.47-.1,64.92,64.92,0,0,0-9,.5,79.27,79.27,0,0,0-8.65,1.46,69.48,69.48,0,0,0-7.71,2.28,1.72,1.72,0,0,0-1,.84,6.29,6.29,0,0,1-1.93,2.26,3.55,3.55,0,0,1-2.6.63,1.71,1.71,0,0,1-.54-.22c-.73-.38-1.43-.8-2.13-1.23,0,0-.08,0-.09-.1l2.12.22.6.07a1,1,0,0,0,.94-.43c.58-.84,1.15-1.69,1.72-2.54a.41.41,0,0,0-.07-.55A24,24,0,0,1,61.92,76a1.1,1.1,0,0,0-1.19-.49c-.93.17-1.86.3-2.79.45,0-.07,0-.08.06-.1.57-.39,1.14-.76,1.72-1.13A4,4,0,0,1,65,75.87a6.53,6.53,0,0,1,.65,1.19.44.44,0,0,0,.6.3c3.76-1,7.56-1.76,11.39-2.43,2.41-.43,4.84-.79,7.28-1.06,1.81-.2,3.61-.34,5.43-.36a23.15,23.15,0,0,1,6.58.76A4.53,4.53,0,0,1,99,75.38,1.63,1.63,0,0,1,99.39,76.07Z" transform="translate(-24 -66.2)"/><path class="cls-7" d="M56.65,78.45a21,21,0,0,1-3.51.12c-4.67-.11-9.34-.26-14-.34a12.37,12.37,0,0,0-8.29,2.87,7.38,7.38,0,0,0-2.69,7.6A16.9,16.9,0,0,0,32.6,97l1.24,1.37a3.67,3.67,0,0,1-1.38-.11,10.21,10.21,0,0,1-8.46-10,13.27,13.27,0,0,1,.92-5.42,10.32,10.32,0,0,0,.62-4.24c0-.47.12-.63.58-.59s1.05,0,1.57,0a.65.65,0,0,0,.73-.73c0-1.06,0-2.13,0-3.19,0-.29-.17-.39-.36-.51l-3.48-2.27a1.62,1.62,0,0,1,.81,0l8.45.44A3.92,3.92,0,0,1,35,72c1.08.4,2.19.76,3.24,1.22a6.29,6.29,0,0,0,3.06.47,39.75,39.75,0,0,0,6.44-.78c1.17-.27,2.29-.78,3.43-1.16a100,100,0,0,1,25.63-5.36,81.78,81.78,0,0,1,17.34.51c6,.92,12,2.24,17.43,5.07a15.52,15.52,0,0,0,4.85,1.54c6.92,1.07,13.83,2.2,20.71,3.48a28.37,28.37,0,0,1,9.39,3c4.23,2.48,6.93,6.05,7.36,11.1a32.31,32.31,0,0,1-.24,7.09c0,.24-.07.47-.37.47h-5.42l.7-.4c.94-.53,1.88-1.07,2.84-1.58a.77.77,0,0,0,.46-.8A16.14,16.14,0,0,0,141.53,81a45.51,45.51,0,0,0-9.9-2.31,127,127,0,0,0-17.42-1.34,51.08,51.08,0,0,0-6.17.69c-3.08.38-6.15.8-9.23,1.2-.14,0-.56.26-.35-.24a4.85,4.85,0,0,1,3-3.24,10.75,10.75,0,0,1,2.11-.24c.43,0,.86,0,1.28-.09.22,0,.5,0,.56-.26s-.2-.39-.4-.48a42.37,42.37,0,0,0-4.22-1.79,74.52,74.52,0,0,0-11.28-2.33,49.71,49.71,0,0,0-9.6-.53,66.89,66.89,0,0,0-21.5,4.44,5.32,5.32,0,0,0-2.06,1.32,1.41,1.41,0,0,0,.06,2.34Z" transform="translate(-24 -66.2)"/></svg>